# xmcd CD database file
#
# Track frame offsets:
#	150
#	13237
#	26795
#	41730
#	55505
#	70066
#	92270
#	104403
#	132784
#	148123
#	162821
#	176253
#	191096
#	205214
#	217367
#	231799
#	246602
#	259741
#	274312
#	287826
#	301917
#	316564
#
# Disc length: 4532 seconds
#
# Revision: 2
# Processed by: cddbd v1.5.2PL0 Copyright (c) Steve Scherf et al.
# Submitted via: CDex 1.51
#
DISCID=4511b216
DTITLE=Woody Herman - [CD 02-10] - No, Don't Stop
DYEAR=1900
DGENRE=Jazz
TTITLE0=You've Got Me Crying Again  [1946]
TTITLE1=No, Don't Stop  [1946]
TTITLE2=Panacea  [1946]
TTITLE3=Heaven Knows  [1946]
TTITLE4=Bijou  (Rhumba A La Jazz)  [1946]
TTITLE5=Sweet And Lovely  [1946]
TTITLE6=Heads Up  [1946]
TTITLE7=Wild Root  (Extended Version)  [1946]
TTITLE8=Linger In My Arms A Little Longer  [1946]
TTITLE9=Surrender  [1946]
TTITLE10=Mabel, Mabel  [1946]
TTITLE11=Steps  [1946]
TTITLE12=Four Men On A Horse  [1946]
TTITLE13=Igor  [1946]
TTITLE14=Fan It  [1946]
TTITLE15=Nero's Conception  [1946]
TTITLE16=Lost Weekend  [1946]
TTITLE17=Pam  [1946]
TTITLE18=Sidewalks Of Cuba  [1946]
TTITLE19=Stars Fell On Alabama  [1946]
TTITLE20=If It's Love You Want  [1946]
TTITLE21=Lady McGowan's Dream  [1946]
EXTD=
EXTT0=
EXTT1=
EXTT2=
EXTT3=
EXTT4=
EXTT5=
EXTT6=
EXTT7=
EXTT8=
EXTT9=
EXTT10=
EXTT11=
EXTT12=
EXTT13=
EXTT14=
EXTT15=
EXTT16=
EXTT17=
EXTT18=
EXTT19=
EXTT20=
EXTT21=
PLAYORDER=
